0
SECTION
2
HEADER
9
$INSUNITS
70
4
9
$ACADVER
1
AC1014
9
$HANDSEED
5
FFFF
0
ENDSEC
0
SECTION
2
TABLES
0
TABLE
2
VPORT
5
8
100
AcDbSymbolTable
0
ENDTAB
0
TABLE
2
LTYPE
5
5
100
AcDbSymbolTable
0
LTYPE
5
14
100
AcDbSymbolTableRecord
100
AcDbLinetypeTableRecord
2
BYBLOCK
70
0
0
LTYPE
5
15
100
AcDbSymbolTableRecord
100
AcDbLinetypeTableRecord
2
BYLAYER
70
0
0
LTYPE
5
16
100
AcDbSymbolTableRecord
100
AcDbLinetypeTableRecord
2
DASHED
70
0
3
Dashed __ __ __ __ __ __ __ __ __ __ __ __ __ _
72
65
73
2
40
0.75
49
0.5
74
0
49
-0.25
74
0
0
ENDTAB
0
TABLE
2
LAYER
5
2
100
AcDbSymbolTable
70
2
0
LAYER
5
50
100
AcDbSymbolTableRecord
100
AcDbLayerTableRecord
2
0
70
0
62
7
6
CONTINUOUS
0
ENDTAB
0
TABLE
2
STYLE
5
3
100
AcDbSymbolTable
70
1
0
STYLE
5
11
100
AcDbSymbolTableRecord
100
AcDbTextStyleTableRecord
2
STANDARD
70
0
0
ENDTAB
0
TABLE
2
VIEW
5
6
100
AcDbSymbolTable
70
0
0
ENDTAB
0
TABLE
2
UCS
5
7
100
AcDbSymbolTable
70
0
0
ENDTAB
0
TABLE
2
APPID
5
9
100
AcDbSymbolTable
70
2
0
APPID
5
12
100
AcDbSymbolTableRecord
100
AcDbRegAppTableRecord
2
ACAD
70
0
0
ENDTAB
0
TABLE
2
DIMSTYLE
5
A
100
AcDbSymbolTable
70
1
0
ENDTAB
0
TABLE
2
BLOCK_RECORD
5
1
100
AcDbSymbolTable
70
1
0
BLOCK_RECORD
5
1F
100
AcDbSymbolTableRecord
100
AcDbBlockTableRecord
2
*MODEL_SPACE
0
BLOCK_RECORD
5
1B
100
AcDbSymbolTableRecord
100
AcDbBlockTableRecord
2
*PAPER_SPACE
0
ENDTAB
0
ENDSEC
0
SECTION
2
BLOCKS
0
BLOCK
5
20
100
AcDbEntity
100
AcDbBlockBegin
2
*MODEL_SPACE
0
ENDBLK
5
21
100
AcDbEntity
100
AcDbBlockEnd
0
BLOCK
5
1C
100
AcDbEntity
100
AcDbBlockBegin
2
*PAPER_SPACE
0
ENDBLK
5
1D
100
AcDbEntity
100
AcDbBlockEnd
0
ENDSEC
0
SECTION
2
ENTITIES
0
CIRCLE
5
100
100
AcDbEntity
8
0
100
AcDbCircle
10
190
20
0
30
0
40
63.000000000000007
210
0
220
0
230
1
0
LWPOLYLINE
5
101
100
AcDbEntity
8
0
100
AcDbPolyline
90
6
70
1
43
0.0
10
114
20
57.419508879822423
42
0.69905135473278723
10
128.11235955056179
20
52.258204710849618
42
-0.060371470479079849
10
142.38624741025629
20
65.528089887640363
42
0.50949520224842881
10
142.38624741025629
20
78.471910112359438
42
-0.060371470479079738
10
128.11235955056176
20
91.741795289150076
42
0.69905135473278079
10
113.99999999999999
20
86.580491120177243
0
LWPOLYLINE
5
102
100
AcDbEntity
8
0
100
AcDbPolyline
90
8
70
1
43
0.0
10
231.49473610905005
20
62.475490196078539
42
0.3018337017738007
10
148.50526389094961
20
62.475490196078297
42
0.5411950036757559
10
148.37807696034704
20
79.218710089399522
42
-0.56006501821333221
10
151.1831222275666
20
210.50000000000023
42
-0.13286292888886977
10
156.72839048077128
20
212.00000000000023
10
223.27160951922787
20
212.0000000000002
42
-0.13286292888887349
10
228.81687777243252
20
210.50000000000023
42
-0.56006501821332955
10
231.62192303965242
20
79.218710089399821
42
0.54119500367576168
0
ARC
5
103
100
AcDbEntity
8
0
100
AcDbCircle
10
190
20
1.1102230246251565e-14
30
0
40
75.000000000000028
210
0
220
0
230
1
100
AcDbArc
50
-236.40883212646114
51
56.408832126461483
0
LWPOLYLINE
5
104
100
AcDbEntity
8
0
100
AcDbPolyline
90
6
70
1
43
0.0
10
237.61375258974334
20
78.471910112359694
42
0.50949520224842759
10
237.61375258974334
20
65.528089887640675
42
-0.060371470479080071
10
251.88764044943792
20
52.258204710849931
42
0.69905135473278623
10
265.99999999999972
20
57.419508879822807
10
265.99999999999955
20
86.580491120177655
42
0.69905135473278546
10
251.88764044943778
20
91.741795289150417
42
-0.060371470479079627
0
LWPOLYLINE
5
105
100
AcDbEntity
8
0
100
AcDbPolyline
90
4
70
1
43
0.0
10
98.999999999999986
20
223
10
99
20
-79.000000000000028
10
281
20
-79
10
281
20
223.00000000000006
0
CIRCLE
5
106
100
AcDbEntity
8
0
100
AcDbCircle
10
189.99999999999957
20
144.00000000000006
30
0
40
59
210
0
220
0
230
1
0
LINE
5
107
100
AcDbEntity
8
0
100
AcDbLine
10
77
20
55
30
0
11
-77.000000000000014
21
55
31
0
0
LWPOLYLINE
5
108
100
AcDbEntity
8
0
100
AcDbPolyline
90
4
70
1
43
0.0
10
-77
20
66.999999999999972
10
-77
20
-65
10
77
20
-65
10
77
20
67
0
LINE
5
109
100
AcDbEntity
8
0
100
AcDbLine
10
-77
20
-55
30
0
11
77
21
-55
31
0
0
LWPOLYLINE
5
110
100
AcDbEntity
8
0
100
AcDbPolyline
90
4
70
1
43
0.0
10
-90.999999999999957
20
-79.000000000000028
10
-90.999999999999972
20
223.00000000000006
10
90.999999999999972
20
223.00000000000006
10
91
20
-79.000000000000028
0
LWPOLYLINE
5
111
100
AcDbEntity
8
0
100
AcDbPolyline
90
8
70
1
43
0.0
10
-33.271609519228697
20
75.999999999999929
10
33.271609519227844
20
75.999999999999915
42
0.13286292888887954
10
38.816877772432548
20
77.499999999999886
42
0.57418228913634672
10
38.81687777243252
20
210.50000000000023
42
0.13286292888887549
10
33.271609519227844
20
212.0000000000002
10
-33.271609519228711
20
212.00000000000017
42
0.13286292888887646
10
-38.816877772433372
20
210.50000000000026
42
0.57418228913634728
10
-38.816877772433372
20
77.499999999999915
42
0.13286292888887938
0
CIRCLE
5
112
100
AcDbEntity
8
0
100
AcDbCircle
10
-4.2056807531494639e-13
20
144.00000000000006
30
0
40
59
210
0
220
0
230
1
0
LWPOLYLINE
5
113
100
AcDbEntity
8
0
100
AcDbPolyline
90
4
70
1
43
0.0
10
313.61454415272169
20
223.00000000000006
10
503.61454415272163
20
223.00000000000006
10
503.61454415272163
20
-78.999999999999986
10
313.61454415272169
20
-78.999999999999986
0
LWPOLYLINE
5
114
100
AcDbEntity
8
0
100
AcDbPolyline
90
4
70
1
43
0.0
10
512.54944533812875
20
223.00000000000006
10
702.54944533812875
20
223.00000000000006
10
702.54944533812875
20
69.000000000000043
10
512.54944533812875
20
69.000000000000043
0
LINE
5
115
100
AcDbEntity
8
0
100
AcDbLine
10
372.80244702259125
20
108.48453400699614
30
0
11
444.21889411128865
21
108.48453400699614
31
0
6
DASHED
0
LINE
5
116
100
AcDbEntity
8
0
100
AcDbLine
10
444.21889411128865
20
108.48453400699614
30
0
11
444.21889411128865
21
58.228515685320197
31
0
6
DASHED
0
LINE
5
117
100
AcDbEntity
8
0
100
AcDbLine
10
444.21889411128865
20
58.228515685320197
30
0
11
372.80244702259125
21
58.228515685320197
31
0
6
DASHED
0
LINE
5
118
100
AcDbEntity
8
0
100
AcDbLine
10
372.80244702259125
20
58.228515685320197
30
0
11
372.80244702259125
21
108.48453400699614
31
0
6
DASHED
0
LWPOLYLINE
5
119
100
AcDbEntity
8
0
100
AcDbPolyline
90
4
70
1
43
0.0
10
512.54944533812875
20
65.257114926444331
10
666.54944533812886
20
65.257114926444331
10
666.54944533812886
20
-54.742885073555669
10
512.54944533812875
20
-54.742885073555669
0
LINE
5
120
100
AcDbEntity
8
0
100
AcDbLine
10
575.34811677280481
20
180.62220620024064
30
0
11
646.76456386150198
21
180.62220620024056
31
0
6
DASHED
0
LINE
5
121
100
AcDbEntity
8
0
100
AcDbLine
10
646.76456386150198
20
180.62220620024056
30
0
11
646.76456386150198
21
130.36618787856483
31
0
6
DASHED
0
LINE
5
122
100
AcDbEntity
8
0
100
AcDbLine
10
646.76456386150198
20
130.36618787856483
30
0
11
575.34811677280481
21
130.36618787856486
31
0
6
DASHED
0
LINE
5
123
100
AcDbEntity
8
0
100
AcDbLine
10
575.34811677280481
20
130.36618787856486
30
0
11
575.34811677280481
21
180.62220620024064
31
0
6
DASHED
0
LWPOLYLINE
5
124
100
AcDbEntity
8
0
100
AcDbPolyline
90
4
70
1
43
0.0
10
512.54944533812875
20
-59.566168203861878
10
666.54944533812886
20
-59.566168203861878
10
666.54944533812886
20
-93.566168203861878
10
512.54944533812875
20
-93.566168203861878
0
LINE
5
125
100
AcDbEntity
8
0
100
AcDbLine
10
541.4074650682569
20
-37.207233580488662
30
0
11
612.82391215695384
21
-37.207233580488733
31
0
6
DASHED
0
LINE
5
126
100
AcDbEntity
8
0
100
AcDbLine
10
612.82391215695384
20
-37.207233580488733
30
0
11
612.82391215695384
21
-87.463251902164359
31
0
6
DASHED
0
LINE
5
127
100
AcDbEntity
8
0
100
AcDbLine
10
612.82391215695384
20
-87.463251902164359
30
0
11
541.4074650682569
21
-87.46325190216433
31
0
6
DASHED
0
LINE
5
128
100
AcDbEntity
8
0
100
AcDbLine
10
541.4074650682569
20
-87.46325190216433
30
0
11
541.4074650682569
21
-37.207233580488662
31
0
6
DASHED
0
LINE
5
129
100
AcDbEntity
8
0
100
AcDbLine
10
399.29630929390015
20
93.508190215349487
30
0
11
399.29630929390015
21
98.22851568532019
31
0
0
LINE
5
130
100
AcDbEntity
8
0
100
AcDbLine
10
399.29630929390015
20
98.22851568532019
30
0
11
372.8570173100573
21
98.22851568532019
31
0
0
SPLINE
5
131
100
AcDbEntity
8
0
100
AcDbSpline
70
0
71
2
72
6
73
3
74
0
42
0.000000001
43
0.0000000001
44
0.0000000001
40
0
40
0
40
0
40
1
40
1
40
1
10
372.8570173100573
20
98.22851568532019
30
0
10
372.80244702259125
20
96.454981864214233
30
0
10
373.43000495592179
20
94.817875922441772
30
0
0
SPLINE
5
132
100
AcDbEntity
8
0
100
AcDbSpline
70
0
71
2
72
6
73
3
74
0
42
0.000000001
43
0.0000000001
44
0.0000000001
40
0
40
0
40
0
40
1
40
1
40
1
10
373.43000495592179
20
94.817875922441772
30
0
10
374.43955475250306
20
92.116645873308471
30
0
10
376.6632931844336
20
89.497274459123901
30
0
0
SPLINE
5
133
100
AcDbEntity
8
0
100
AcDbSpline
70
0
71
2
72
6
73
3
74
0
42
0.000000001
43
0.0000000001
44
0.0000000001
40
0
40
0
40
0
40
1
40
1
40
1
10
376.6632931844336
20
89.497274459123901
30
0
10
378.88703102031769
20
86.87790304493933
30
0
10
383.0889409200293
20
83.439973891496948
30
0
0
SPLINE
5
134
100
AcDbEntity
8
0
100
AcDbSpline
70
0
71
2
72
6
73
3
74
0
42
0.000000001
43
0.0000000001
44
0.0000000001
40
0
40
0
40
0
40
1
40
1
40
1
10
383.0889409200293
20
83.439973891496948
30
0
10
389.61008721748414
20
78.092090190172485
30
0
10
391.90203839698853
20
74.967943728685668
30
0
0
SPLINE
5
135
100
AcDbEntity
8
0
100
AcDbSpline
70
0
71
2
72
6
73
3
74
0
42
0.000000001
43
0.0000000001
44
0.0000000001
40
0
40
0
40
0
40
1
40
1
40
1
10
391.90203839698853
20
74.967943728685668
30
0
10
394.19398957649292
20
71.843794883013061
30
0
10
394.19398957649292
20
69.060710967302612
30
0
0
SPLINE
5
136
100
AcDbEntity
8
0
100
AcDbSpline
70
0
71
2
72
6
73
3
74
0
42
0.000000001
43
0.0000000001
44
0.0000000001
40
0
40
0
40
0
40
1
40
1
40
1
10
394.19398957649292
20
69.060710967302612
30
0
10
394.19398957649292
20
66.141203940630248
30
0
10
392.10667544761719
20
64.135746062517455
30
0
0
SPLINE
5
137
100
AcDbEntity
8
0
100
AcDbSpline
70
0
71
2
72
6
73
3
74
0
42
0.000000001
43
0.0000000001
44
0.0000000001
40
0
40
0
40
0
40
1
40
1
40
1
10
392.10667544761719
20
64.135746062517455
30
0
10
390.01936370292725
20
62.130288184404669
30
0
10
386.6632931844336
20
62.130288184404669
30
0
0
SPLINE
5
138
100
AcDbEntity
8
0
100
AcDbSpline
70
0
71
2
72
6
73
3
74
0
42
0.000000001
43
0.0000000001
44
0.0000000001
40
0
40
0
40
0
40
1
40
1
40
1
10
386.6632931844336
20
62.130288184404669
30
0
10
383.11622554222168
20
62.130288184404669
30
0
10
380.98798567215027
20
64.258529246568969
30
0
0
SPLINE
5
139
100
AcDbEntity
8
0
100
AcDbSpline
70
0
71
2
72
6
73
3
74
0
42
0.000000001
43
0.0000000001
44
0.0000000001
40
0
40
0
40
0
40
1
40
1
40
1
10
380.98798567215027
20
64.258529246568969
30
0
10
378.85974580207886
20
66.386770308733276
30
0
10
378.83246058384003
20
70.152117312670043
30
0
0
LINE
5
140
100
AcDbEntity
8
0
100
AcDbLine
10
378.83246058384003
20
70.152117312670043
30
0
11
373.78471160093369
21
69.633699954271606
31
0
0
SPLINE
5
141
100
AcDbEntity
8
0
100
AcDbSpline
70
0
71
2
72
6
73
3
74
0
42
0.000000001
43
0.0000000001
44
0.0000000001
40
0
40
0
40
0
40
1
40
1
40
1
10
373.78471160093369
20
69.633699954271606
30
0
10
374.30312925735535
20
63.985678256273566
30
0
10
377.68648559013428
20
61.025241912126837
30
0
0
SPLINE
5
142
100
AcDbEntity
8
0
100
AcDbSpline
70
0
71
2
72
6
73
3
74
0
42
0.000000001
43
0.0000000001
44
0.0000000001
40
0
40
0
40
0
40
1
40
1
40
1
10
377.68648559013428
20
61.025241912126837
30
0
10
381.06984132686677
20
58.064803183794318
30
0
10
386.77243405738892
20
58.064803183794318
30
0
0
SPLINE
5
143
100
AcDbEntity
8
0
100
AcDbSpline
70
0
71
2
72
6
73
3
74
0
42
0.000000001
43
0.0000000001
44
0.0000000001
40
0
40
0
40
0
40
1
40
1
40
1
10
386.77243405738892
20
58.064803183794318
30
0
10
392.52959662834229
20
58.064803183794318
30
0
10
395.88566714683594
20
61.257165969133673
30
0
0
SPLINE
5
144
100
AcDbEntity
8
0
100
AcDbSpline
70
0
71
2
72
6
73
3
74
0
42
0.000000001
43
0.0000000001
44
0.0000000001
40
0
40
0
40
0
40
1
40
1
40
1
10
395.88566714683594
20
61.257165969133673
30
0
10
399.24173766532959
20
64.44952398610144
30
0
10
399.24173766532959
20
69.169851840257934
30
0
0
SPLINE
5
145
100
AcDbEntity
8
0
100
AcDbSpline
70
0
71
2
72
6
73
3
74
0
42
0.000000001
43
0.0000000001
44
0.0000000001
40
0
40
0
40
0
40
1
40
1
40
1
10
399.24173766532959
20
69.169851840257934
30
0
10
399.24173766532959
20
71.570943892717651
30
0
10
398.25947457710328
20
73.890179694414428
30
0
0
SPLINE
5
146
100
AcDbEntity
8
0
100
AcDbSpline
70
0
71
2
72
6
73
3
74
0
42
0.000000001
43
0.0000000001
44
0.0000000001
40
0
40
0
40
0
40
1
40
1
40
1
10
398.25947457710328
20
73.890179694414428
30
0
10
397.27720910469117
20
76.209415496111205
30
0
10
394.99890023628296
20
78.77421766591101
30
0
0
SPLINE
5
147
100
AcDbEntity
8
0
100
AcDbSpline
70
0
71
2
72
6
73
3
74
0
42
0.000000001
43
0.0000000001
44
0.0000000001
40
0
40
0
40
0
40
1
40
1
40
1
10
394.99890023628296
20
78.77421766591101
30
0
10
392.72059136787476
20
81.339019835710815
30
0
10
387.42727691093506
20
85.813781321764282
30
0
0
SPLINE
5
148
100
AcDbEntity
8
0
100
AcDbSpline
70
0
71
2
72
6
73
3
74
0
42
0.000000001
43
0.0000000001
44
0.0000000001
40
0
40
0
40
0
40
1
40
1
40
1
10
387.42727691093506
20
85.813781321764282
30
0
10
383.00708466926636
20
89.524559081316283
30
0
10
381.75196939865174
20
90.84788709950476
30
0
0
SPLINE
5
149
100
AcDbEntity
8
0
100
AcDbSpline
70
0
71
2
72
6
73
3
74
0
42
0.000000001
43
0.0000000001
44
0.0000000001
40
0
40
0
40
0
40
1
40
1
40
1
10
381.75196939865174
20
90.84788709950476
30
0
10
380.49685353199067
20
92.171215117693237
30
0
10
379.67829996505799
20
93.508190215349487
30
0
0
LINE
5
150
100
AcDbEntity
8
0
100
AcDbLine
10
379.67829996505799
20
93.508190215349487
30
0
11
399.29630929390015
21
93.508190215349487
31
0
0
LINE
5
151
100
AcDbEntity
8
0
100
AcDbLine
10
402.48866731086792
20
98.22851568532019
30
0
11
417.9593341962439
21
77.382675708055785
31
0
0
LINE
5
152
100
AcDbEntity
8
0
100
AcDbLine
10
417.9593341962439
20
77.382675708055785
30
0
11
404.31677037635865
21
58.228515685320197
31
0
0
LINE
5
153
100
AcDbEntity
8
0
100
AcDbLine
10
404.31677037635865
20
58.228515685320197
30
0
11
410.61963731208863
21
58.228515685320197
31
0
0
LINE
5
154
100
AcDbEntity
8
0
100
AcDbLine
10
410.61963731208863
20
58.228515685320197
30
0
11
417.87748032966675
21
68.487724364519408
31
0
0
SPLINE
5
155
100
AcDbEntity
8
0
100
AcDbSpline
70
0
71
2
72
6
73
3
74
0
42
0.000000001
43
0.0000000001
44
0.0000000001
40
0
40
0
40
0
40
1
40
1
40
1
10
417.87748032966675
20
68.487724364519408
30
0
10
420.14214688697876
20
71.680084765672973
30
0
10
421.09712296882691
20
73.399046958208373
30
0
0
SPLINE
5
156
100
AcDbEntity
8
0
100
AcDbSpline
70
0
71
2
72
6
73
3
74
0
42
0.000000001
43
0.0000000001
44
0.0000000001
40
0
40
0
40
0
40
1
40
1
40
1
10
421.09712296882691
20
73.399046958208373
30
0
10
422.43409806648316
20
71.216236651659301
30
0
10
424.26220113197388
20
68.842431605577758
30
0
0
LINE
5
157
100
AcDbEntity
8
0
100
AcDbLine
10
424.26220113197388
20
68.842431605577758
30
0
11
432.31131249824585
21
58.228515685320197
31
0
0
LINE
5
158
100
AcDbEntity
8
0
100
AcDbLine
10
432.31131249824585
20
58.228515685320197
30
0
11
438.06847745338501
21
58.228515685320197
31
0
0
LINE
5
159
100
AcDbEntity
8
0
100
AcDbLine
10
438.06847745338501
20
58.228515685320197
30
0
11
424.01663476387085
21
77.082540095567992
31
0
0
LINE
5
160
100
AcDbEntity
8
0
100
AcDbLine
10
424.01663476387085
20
77.082540095567992
30
0
11
439.15988141456666
21
98.22851568532019
31
0
0
LINE
5
161
100
AcDbEntity
8
0
100
AcDbLine
10
439.15988141456666
20
98.22851568532019
30
0
11
432.61145287910523
21
98.22851568532019
31
0
0
LINE
5
162
100
AcDbEntity
8
0
100
AcDbLine
10
432.61145287910523
20
98.22851568532019
30
0
11
422.54323655525269
21
83.958391249895385
31
0
0
SPLINE
5
163
100
AcDbEntity
8
0
100
AcDbSpline
70
0
71
2
72
6
73
3
74
0
42
0.000000001
43
0.0000000001
44
0.0000000001
40
0
40
0
40
0
40
1
40
1
40
1
10
422.54323655525269
20
83.958391249895385
30
0
10
421.69739896217408
20
82.730561793566039
30
0
10
420.7969921247107
20
81.284450591326049
30
0
0
SPLINE
5
164
100
AcDbEntity
8
0
100
AcDbSpline
70
0
71
2
72
6
73
3
74
0
42
0.000000001
43
0.0000000001
44
0.0000000001
40
0
40
0
40
0
40
1
40
1
40
1
10
420.7969921247107
20
81.284450591326049
30
0
10
419.46001702705445
20
83.467260897875121
30
0
10
418.88703042427125
20
84.285813868761352
30
0
0
LINE
5
165
100
AcDbEntity
8
0
100
AcDbLine
10
418.88703042427125
20
84.285813868761352
30
0
11
408.84610349098267
21
98.22851568532019
31
0
0
LINE
5
166
100
AcDbEntity
8
0
100
AcDbLine
10
408.84610349098267
20
98.22851568532019
30
0
11
402.48866731086792
21
98.22851568532019
31
0
0
LINE
5
167
100
AcDbEntity
8
0
100
AcDbLine
10
601.84197904411371
20
165.64586240859416
30
0
11
601.84197904411371
21
170.36618787856486
31
0
0
LINE
5
168
100
AcDbEntity
8
0
100
AcDbLine
10
601.84197904411371
20
170.36618787856486
30
0
11
575.40268706027086
21
170.36618787856492
31
0
0
SPLINE
5
169
100
AcDbEntity
8
0
100
AcDbSpline
70
0
71
2
72
6
73
3
74
0
42
0.000000001
43
0.0000000001
44
0.0000000001
40
0
40
0
40
0
40
1
40
1
40
1
10
575.40268706027086
20
170.36618787856492
30
0
10
575.34811677280481
20
168.59265405745896
30
0
10
575.97567470613535
20
166.9555481156865
30
0
0
SPLINE
5
170
100
AcDbEntity
8
0
100
AcDbSpline
70
0
71
2
72
6
73
3
74
0
42
0.000000001
43
0.0000000001
44
0.0000000001
40
0
40
0
40
0
40
1
40
1
40
1
10
575.97567470613535
20
166.9555481156865
30
0
10
576.98522450271662
20
164.2543180665532
30
0
10
579.20896293464716
20
161.63494665236863
30
0
0
SPLINE
5
171
100
AcDbEntity
8
0
100
AcDbSpline
70
0
71
2
72
6
73
3
74
0
42
0.000000001
43
0.0000000001
44
0.0000000001
40
0
40
0
40
0
40
1
40
1
40
1
10
579.20896293464716
20
161.63494665236863
30
0
10
581.43270077053126
20
159.01557523818406
30
0
10
585.63461067024286
20
155.57764608474164
30
0
0
SPLINE
5
172
100
AcDbEntity
8
0
100
AcDbSpline
70
0
71
2
72
6
73
3
74
0
42
0.000000001
43
0.0000000001
44
0.0000000001
40
0
40
0
40
0
40
1
40
1
40
1
10
585.63461067024286
20
155.57764608474164
30
0
10
592.1557569676977
20
150.22976238341718
30
0
10
594.44770814720209
20
147.10561592193037
30
0
0
SPLINE
5
173
100
AcDbEntity
8
0
100
AcDbSpline
70
0
71
2
72
6
73
3
74
0
42
0.000000001
43
0.0000000001
44
0.0000000001
40
0
40
0
40
0
40
1
40
1
40
1
10
594.44770814720209
20
147.10561592193037
30
0
10
596.73965932670649
20
143.98146707625776
30
0
10
596.73965932670649
20
141.19838316054731
30
0
0
SPLINE
5
174
100
AcDbEntity
8
0
100
AcDbSpline
70
0
71
2
72
6
73
3
74
0
42
0.000000001
43
0.0000000001
44
0.0000000001
40
0
40
0
40
0
40
1
40
1
40
1
10
596.73965932670649
20
141.19838316054731
30
0
10
596.73965932670649
20
138.27887613387495
30
0
10
594.65234519783075
20
136.27341825576215
30
0
0
SPLINE
5
175
100
AcDbEntity
8
0
100
AcDbSpline
70
0
71
2
72
6
73
3
74
0
42
0.000000001
43
0.0000000001
44
0.0000000001
40
0
40
0
40
0
40
1
40
1
40
1
10
594.65234519783075
20
136.27341825576215
30
0
10
592.56503345314081
20
134.26796037764936
30
0
10
589.20896293464716
20
134.26796037764936
30
0
0
SPLINE
5
176
100
AcDbEntity
8
0
100
AcDbSpline
70
0
71
2
72
6
73
3
74
0
42
0.000000001
43
0.0000000001
44
0.0000000001
40
0
40
0
40
0
40
1
40
1
40
1
10
589.20896293464716
20
134.26796037764936
30
0
10
585.66189529243525
20
134.26796037764936
30
0
10
583.53365542236384
20
136.39620143981369
30
0
0
SPLINE
5
177
100
AcDbEntity
8
0
100
AcDbSpline
70
0
71
2
72
6
73
3
74
0
42
0.000000001
43
0.0000000001
44
0.0000000001
40
0
40
0
40
0
40
1
40
1
40
1
10
583.53365542236384
20
136.39620143981369
30
0
10
581.40541555229242
20
138.524442501978
30
0
10
581.37813033405359
20
142.28978950591477
30
0
0
LINE
5
178
100
AcDbEntity
8
0
100
AcDbLine
10
581.37813033405359
20
142.28978950591477
30
0
11
576.33038135114725
21
141.77137214751633
31
0
0
SPLINE
5
179
100
AcDbEntity
8
0
100
AcDbSpline
70
0
71
2
72
6
73
3
74
0
42
0.000000001
43
0.0000000001
44
0.0000000001
40
0
40
0
40
0
40
1
40
1
40
1
10
576.33038135114725
20
141.77137214751633
30
0
10
576.84879900756891
20
136.12335044951828
30
0
10
580.23215534034784
20
133.16291410537156
30
0
0
SPLINE
5
180
100
AcDbEntity
8
0
100
AcDbSpline
70
0
71
2
72
6
73
3
74
0
42
0.000000001
43
0.0000000001
44
0.0000000001
40
0
40
0
40
0
40
1
40
1
40
1
10
580.23215534034784
20
133.16291410537156
30
0
10
583.61551107708033
20
130.20247537703904
30
0
10
589.31810380760248
20
130.20247537703901
30
0
0
SPLINE
5
181
100
AcDbEntity
8
0
100
AcDbSpline
70
0
71
2
72
6
73
3
74
0
42
0.000000001
43
0.0000000001
44
0.0000000001
40
0
40
0
40
0
40
1
40
1
40
1
10
589.31810380760248
20
130.20247537703901
30
0
10
595.07526637855585
20
130.20247537703901
30
0
10
598.4313368970495
20
133.39483816237836
30
0
0
SPLINE
5
182
100
AcDbEntity
8
0
100
AcDbSpline
70
0
71
2
72
6
73
3
74
0
42
0.000000001
43
0.0000000001
44
0.0000000001
40
0
40
0
40
0
40
1
40
1
40
1
10
598.4313368970495
20
133.39483816237836
30
0
10
601.78740741554316
20
136.58719617934611
30
0
10
601.78740741554316
20
141.3075240335026
30
0
0
SPLINE
5
183
100
AcDbEntity
8
0
100
AcDbSpline
70
0
71
2
72
6
73
3
74
0
42
0.000000001
43
0.0000000001
44
0.0000000001
40
0
40
0
40
0
40
1
40
1
40
1
10
601.78740741554316
20
141.3075240335026
30
0
10
601.78740741554316
20
143.70861608596232
30
0
10
600.80514432731684
20
146.0278518876591
30
0
0
SPLINE
5
184
100
AcDbEntity
8
0
100
AcDbSpline
70
0
71
2
72
6
73
3
74
0
42
0.000000001
43
0.0000000001
44
0.0000000001
40
0
40
0
40
0
40
1
40
1
40
1
10
600.80514432731684
20
146.0278518876591
30
0
10
599.82287885490473
20
148.34708768935587
30
0
10
597.54456998649653
20
150.91188985915571
30
0
0
SPLINE
5
185
100
AcDbEntity
8
0
100
AcDbSpline
70
0
71
2
72
6
73
3
74
0
42
0.000000001
43
0.0000000001
44
0.0000000001
40
0
40
0
40
0
40
1
40
1
40
1
10
597.54456998649653
20
150.91188985915571
30
0
10
595.26626111808832
20
153.47669202895551
30
0
10
589.97294666114863
20
157.95145351500898
30
0
0
SPLINE
5
186
100
AcDbEntity
8
0
100
AcDbSpline
70
0
71
2
72
6
73
3
74
0
42
0.000000001
43
0.0000000001
44
0.0000000001
40
0
40
0
40
0
40
1
40
1
40
1
10
589.97294666114863
20
157.95145351500898
30
0
10
585.55275441947992
20
161.66223127456101
30
0
10
584.2976391488653
20
162.98555929274949
30
0
0
SPLINE
5
187
100
AcDbEntity
8
0
100
AcDbSpline
70
0
71
2
72
6
73
3
74
0
42
0.000000001
43
0.0000000001
44
0.0000000001
40
0
40
0
40
0
40
1
40
1
40
1
10
584.2976391488653
20
162.98555929274949
30
0
10
583.04252328220423
20
164.30888731093796
30
0
10
582.22396971527155
20
165.64586240859421
30
0
0
LINE
5
188
100
AcDbEntity
8
0
100
AcDbLine
10
582.22396971527155
20
165.64586240859421
30
0
11
601.84197904411371
21
165.64586240859416
31
0
0
LINE
5
189
100
AcDbEntity
8
0
100
AcDbLine
10
605.03433706108149
20
170.36618787856486
30
0
11
620.50500394645746
21
149.52034790130045
31
0
0
LINE
5
190
100
AcDbEntity
8
0
100
AcDbLine
10
620.50500394645746
20
149.52034790130045
30
0
11
606.86244012657221
21
130.36618787856489
31
0
0
LINE
5
191
100
AcDbEntity
8
0
100
AcDbLine
10
606.86244012657221
20
130.36618787856486
30
0
11
613.16530706230219
21
130.36618787856486
31
0
0
LINE
5
192
100
AcDbEntity
8
0
100
AcDbLine
10
613.16530706230219
20
130.36618787856486
30
0
11
620.42315007988032
21
140.62539655776408
31
0
0
SPLINE
5
193
100
AcDbEntity
8
0
100
AcDbSpline
70
0
71
2
72
6
73
3
74
0
42
0.000000001
43
0.0000000001
44
0.0000000001
40
0
40
0
40
0
40
1
40
1
40
1
10
620.42315007988032
20
140.62539655776408
30
0
10
622.68781663719233
20
143.81775695891764
30
0
10
623.64279271904047
20
145.53671915145304
30
0
0
SPLINE
5
194
100
AcDbEntity
8
0
100
AcDbSpline
70
0
71
2
72
6
73
3
74
0
42
0.000000001
43
0.0000000001
44
0.0000000001
40
0
40
0
40
0
40
1
40
1
40
1
10
623.64279271904047
20
145.53671915145304
30
0
10
624.97976781669672
20
143.35390884490397
30
0
10
626.80787088218744
20
140.98010379882243
30
0
0
LINE
5
195
100
AcDbEntity
8
0
100
AcDbLine
10
626.80787088218744
20
140.98010379882243
30
0
11
634.85698224845942
21
130.36618787856483
31
0
0
LINE
5
196
100
AcDbEntity
8
0
100
AcDbLine
10
634.85698224845942
20
130.36618787856486
30
0
11
640.61414720359858
21
130.36618787856486
31
0
0
LINE
5
197
100
AcDbEntity
8
0
100
AcDbLine
10
640.61414720359858
20
130.36618787856483
30
0
11
626.56230451408442
21
149.22021228881266
31
0
0
LINE
5
198
100
AcDbEntity
8
0
100
AcDbLine
10
626.56230451408442
20
149.22021228881266
30
0
11
641.70555116478022
21
170.36618787856483
31
0
0
LINE
5
199
100
AcDbEntity
8
0
100
AcDbLine
10
641.70555116478022
20
170.36618787856483
30
0
11
635.15712262931879
21
170.36618787856483
31
0
0
LINE
5
200
100
AcDbEntity
8
0
100
AcDbLine
10
635.15712262931879
20
170.36618787856483
30
0
11
625.08890630546625
21
156.09606344314005
31
0
0
SPLINE
5
201
100
AcDbEntity
8
0
100
AcDbSpline
70
0
71
2
72
6
73
3
74
0
42
0.000000001
43
0.0000000001
44
0.0000000001
40
0
40
0
40
0
40
1
40
1
40
1
10
625.08890630546625
20
156.09606344314005
30
0
10
624.24306871238764
20
154.86823398681071
30
0
10
623.34266187492426
20
153.42212278457072
30
0
0
SPLINE
5
202
100
AcDbEntity
8
0
100
AcDbSpline
70
0
71
2
72
6
73
3
74
0
42
0.000000001
43
0.0000000001
44
0.0000000001
40
0
40
0
40
0
40
1
40
1
40
1
10
623.34266187492426
20
153.42212278457072
30
0
10
622.00568677726801
20
155.60493309111979
30
0
10
621.43270017448481
20
156.42348606200602
30
0
0
LINE
5
203
100
AcDbEntity
8
0
100
AcDbLine
10
621.43270017448481
20
156.42348606200602
30
0
11
611.39177324119623
21
170.36618787856486
31
0
0
LINE
5
204
100
AcDbEntity
8
0
100
AcDbLine
10
611.39177324119623
20
170.36618787856486
30
0
11
605.03433706108149
21
170.36618787856486
31
0
0
LINE
5
205
100
AcDbEntity
8
0
100
AcDbLine
10
554.65439620391135
20
-69.823414637149654
30
0
11
554.65439620391135
21
-67.463251902164302
31
0
0
LINE
5
206
100
AcDbEntity
8
0
100
AcDbLine
10
554.65439620391135
20
-67.463251902164302
30
0
11
541.43475021198992
21
-67.463251902164288
31
0
0
SPLINE
5
207
100
AcDbEntity
8
0
100
AcDbSpline
70
0
71
2
72
6
73
3
74
0
42
0.000000001
43
0.0000000001
44
0.0000000001
40
0
40
0
40
0
40
1
40
1
40
1
10
541.43475021198992
20
-67.463251902164274
30
0
10
541.4074650682569
20
-68.350018812717252
30
0
10
541.72124403492217
20
-69.168571783603483
30
0
0
SPLINE
5
208
100
AcDbEntity
8
0
100
AcDbSpline
70
0
71
2
72
6
73
3
74
0
42
0.000000001
43
0.0000000001
44
0.0000000001
40
0
40
0
40
0
40
1
40
1
40
1
10
541.72124403492217
20
-69.168571783603483
30
0
10
542.2260189332128
20
-70.519186808170133
30
0
10
543.33788814917807
20
-71.828872515262418
30
0
0
SPLINE
5
209
100
AcDbEntity
8
0
100
AcDbSpline
70
0
71
2
72
6
73
3
74
0
42
0.000000001
43
0.0000000001
44
0.0000000001
40
0
40
0
40
0
40
1
40
1
40
1
10
543.33788814917807
20
-71.828872515262418
30
0
10
544.44975706712012
20
-73.138558222354703
30
0
10
546.55071201697592
20
-74.857522799075909
30
0
0
SPLINE
5
210
100
AcDbEntity
8
0
100
AcDbSpline
70
0
71
2
72
6
73
3
74
0
42
0.000000001
43
0.0000000001
44
0.0000000001
40
0
40
0
40
0
40
1
40
1
40
1
10
546.55071201697592
20
-74.857522799075909
30
0
10
549.81128516570334
20
-77.53146464973814
30
0
10
550.95726075545554
20
-79.093537880481549
30
0
0
SPLINE
5
211
100
AcDbEntity
8
0
100
AcDbSpline
70
0
71
2
72
6
73
3
74
0
42
0.000000001
43
0.0000000001
44
0.0000000001
40
0
40
0
40
0
40
1
40
1
40
1
10
550.95726075545554
20
-79.093537880481549
30
0
10
552.10323634520773
20
-80.655612303317866
30
0
10
552.10323634520773
20
-82.047154261173091
30
0
0
SPLINE
5
212
100
AcDbEntity
8
0
100
AcDbSpline
70
0
71
2
72
6
73
3
74
0
42
0.000000001
43
0.0000000001
44
0.0000000001
40
0
40
0
40
0
40
1
40
1
40
1
10
552.10323634520773
20
-82.047154261173091
30
0
10
552.10323634520773
20
-83.506907774509273
30
0
10
551.05957928076987
20
-84.509636713565669
30
0
0
SPLINE
5
213
100
AcDbEntity
8
0
100
AcDbSpline
70
0
71
2
72
6
73
3
74
0
42
0.000000001
43
0.0000000001
44
0.0000000001
40
0
40
0
40
0
40
1
40
1
40
1
10
551.05957928076987
20
-84.509636713565669
30
0
10
550.0159234084249
20
-85.512365652622037
30
0
10
548.33788814917807
20
-85.512365652622037
30
0
0
SPLINE
5
214
100
AcDbEntity
8
0
100
AcDbSpline
70
0
71
2
72
6
73
3
74
0
42
0.000000001
43
0.0000000001
44
0.0000000001
40
0
40
0
40
0
40
1
40
1
40
1
10
548.33788814917807
20
-85.512365652622037
30
0
10
546.56435432807211
20
-85.512365652622037
30
0
10
545.50023439303641
20
-84.448245121539884
30
0
0
SPLINE
5
215
100
AcDbEntity
8
0
100
AcDbSpline
70
0
71
2
72
6
73
3
74
0
42
0.000000001
43
0.0000000001
44
0.0000000001
40
0
40
0
40
0
40
1
40
1
40
1
10
545.50023439303641
20
-84.448245121539884
30
0
10
544.4361144580007
20
-83.384124590457731
30
0
10
544.42247184888129
20
-81.501451088489347
30
0
0
LINE
5
216
100
AcDbEntity
8
0
100
AcDbLine
10
544.42247184888129
20
-81.501451088489347
30
0
11
541.89859735742812
21
-81.760659767688566
31
0
0
SPLINE
5
217
100
AcDbEntity
8
0
100
AcDbSpline
70
0
71
2
72
6
73
3
74
0
42
0.000000001
43
0.0000000001
44
0.0000000001
40
0
40
0
40
0
40
1
40
1
40
1
10
541.89859735742812
20
-81.760659767688566
30
0
10
542.15780618563895
20
-84.584670616687589
30
0
10
543.84948435202841
20
-86.064888788760953
30
0
0
SPLINE
5
218
100
AcDbEntity
8
0
100
AcDbSpline
70
0
71
2
72
6
73
3
74
0
42
0.000000001
43
0.0000000001
44
0.0000000001
40
0
40
0
40
0
40
1
40
1
40
1
10
543.84948435202841
20
-86.064888788760953
30
0
10
545.54116222039465
20
-87.545108152927213
30
0
10
548.39245858565573
20
-87.545108152927213
30
0
0
SPLINE
5
219
100
AcDbEntity
8
0
100
AcDbSpline
70
0
71
2
72
6
73
3
74
0
42
0.000000001
43
0.0000000001
44
0.0000000001
40
0
40
0
40
0
40
1
40
1
40
1
10
548.39245858565573
20
-87.545108152927213
30
0
10
551.27103987113242
20
-87.545108152927241
30
0
10
552.94907513037924
20
-85.948926760257564
30
0
0
SPLINE
5
220
100
AcDbEntity
8
0
100
AcDbSpline
70
0
71
2
72
6
73
3
74
0
42
0.000000001
43
0.0000000001
44
0.0000000001
40
0
40
0
40
0
40
1
40
1
40
1
10
552.94907513037924
20
-85.948926760257564
30
0
10
554.62711038962607
20
-84.352747751773677
30
0
10
554.62711038962607
20
-81.99258382469543
30
0
0
SPLINE
5
221
100
AcDbEntity
8
0
100
AcDbSpline
70
0
71
2
72
6
73
3
74
0
42
0.000000001
43
0.0000000001
44
0.0000000001
40
0
40
0
40
0
40
1
40
1
40
1
10
554.62711038962607
20
-81.99258382469543
30
0
10
554.62711038962607
20
-80.792037798465572
30
0
10
554.13597884551291
20
-79.632419897617183
30
0
0
SPLINE
5
222
100
AcDbEntity
8
0
100
AcDbSpline
70
0
71
2
72
6
73
3
74
0
42
0.000000001
43
0.0000000001
44
0.0000000001
40
0
40
0
40
0
40
1
40
1
40
1
10
554.13597884551291
20
-79.632419897617183
30
0
10
553.64484610930685
20
-78.472801996768794
30
0
10
552.50569167510275
20
-77.190400911868878
30
0
0
SPLINE
5
223
100
AcDbEntity
8
0
100
AcDbSpline
70
0
71
2
72
6
73
3
74
0
42
0.000000001
43
0.0000000001
44
0.0000000001
40
0
40
0
40
0
40
1
40
1
40
1
10
552.50569167510275
20
-77.190400911868878
30
0
10
551.36653724089865
20
-75.907999826968975
30
0
10
548.7198800124288
20
-73.670619083942242
30
0
0
SPLINE
5
224
100
AcDbEntity
8
0
100
AcDbSpline
70
0
71
2
72
6
73
3
74
0
42
0.000000001
43
0.0000000001
44
0.0000000001
40
0
40
0
40
0
40
1
40
1
40
1
10
548.7198800124288
20
-73.670619083942242
30
0
10
546.50978389159445
20
-71.815230204166227
30
0
10
545.88222625628714
20
-71.153566195071988
30
0
0
SPLINE
5
225
100
AcDbEntity
8
0
100
AcDbSpline
70
0
71
2
72
6
73
3
74
0
42
0.000000001
43
0.0000000001
44
0.0000000001
40
0
40
0
40
0
40
1
40
1
40
1
10
545.88222625628714
20
-71.153566195071988
30
0
10
545.2546683229566
20
-70.49190218597775
30
0
10
544.84539153949027
20
-69.823414637149625
30
0
0
LINE
5
226
100
AcDbEntity
8
0
100
AcDbLine
10
544.84539153949027
20
-69.823414637149625
30
0
11
554.65439620391135
21
-69.823414637149639
31
0
0
LINE
5
227
100
AcDbEntity
8
0
100
AcDbLine
10
556.25057521239523
20
-67.463251902164302
30
0
11
563.98590865508322
21
-77.886171890796504
31
0
0
LINE
5
228
100
AcDbEntity
8
0
100
AcDbLine
10
563.98590865508322
20
-77.886171890796504
30
0
11
557.16462674514059
21
-87.463251902164302
31
0
0
LINE
5
229
100
AcDbEntity
8
0
100
AcDbLine
10
557.16462674514059
20
-87.463251902164302
30
0
11
560.31606021300558
21
-87.463251902164302
31
0
0
LINE
5
230
100
AcDbEntity
8
0
100
AcDbLine
10
560.31606021300558
20
-87.463251902164302
30
0
11
563.94498172179465
21
-82.333647562564693
31
0
0
SPLINE
5
231
100
AcDbEntity
8
0
100
AcDbSpline
70
0
71
2
72
6
73
3
74
0
42
0.000000001
43
0.0000000001
44
0.0000000001
40
0
40
0
40
0
40
1
40
1
40
1
10
563.94498172179465
20
-82.333647562564693
30
0
10
565.07731500045065
20
-80.73746736198791
30
0
10
565.55480304137473
20
-79.87798626572021
30
0
0
SPLINE
5
232
100
AcDbEntity
8
0
100
AcDbSpline
70
0
71
2
72
6
73
3
74
0
42
0.000000001
43
0.0000000001
44
0.0000000001
40
0
40
0
40
0
40
1
40
1
40
1
10
565.55480304137473
20
-79.87798626572021
30
0
10
566.22329059020285
20
-80.969391418994746
30
0
10
567.13734212294821
20
-82.156293942035532
30
0
0
LINE
5
233
100
AcDbEntity
8
0
100
AcDbLine
10
567.13734212294821
20
-82.156293942035532
30
0
11
571.1618978060842
21
-87.463251902164316
31
0
0
LINE
5
234
100
AcDbEntity
8
0
100
AcDbLine
10
571.1618978060842
20
-87.463251902164316
30
0
11
574.04048028365378
21
-87.463251902164316
31
0
0
LINE
5
235
100
AcDbEntity
8
0
100
AcDbLine
10
574.04048028365378
20
-87.463251902164316
30
0
11
567.0145589388967
21
-78.036239697040401
31
0
0
LINE
5
236
100
AcDbEntity
8
0
100
AcDbLine
10
567.0145589388967
20
-78.036239697040401
30
0
11
574.5861822642446
21
-67.463251902164316
31
0
0
LINE
5
237
100
AcDbEntity
8
0
100
AcDbLine
10
574.5861822642446
20
-67.463251902164316
30
0
11
571.31196799651389
21
-67.463251902164316
31
0
0
LINE
5
238
100
AcDbEntity
8
0
100
AcDbLine
10
571.31196799651389
20
-67.463251902164316
30
0
11
566.27785983458762
21
-74.598314119876704
31
0
0
SPLINE
5
239
100
AcDbEntity
8
0
100
AcDbSpline
70
0
71
2
72
6
73
3
74
0
42
0.000000001
43
0.0000000001
44
0.0000000001
40
0
40
0
40
0
40
1
40
1
40
1
10
566.27785983458762
20
-74.598314119876704
30
0
10
565.85494103804831
20
-75.212228848041377
30
0
10
565.40473761931662
20
-75.935284449161372
30
0
0
SPLINE
5
240
100
AcDbEntity
8
0
100
AcDbSpline
70
0
71
2
72
6
73
3
74
0
42
0.000000001
43
0.0000000001
44
0.0000000001
40
0
40
0
40
0
40
1
40
1
40
1
10
565.40473761931662
20
-75.935284449161372
30
0
10
564.7362500704885
20
-74.843879295886836
30
0
10
564.44975676909689
20
-74.434602810443721
30
0
0
LINE
5
241
100
AcDbEntity
8
0
100
AcDbLine
10
564.44975676909689
20
-74.434602810443721
30
0
11
559.42929330245261
21
-67.463251902164302
31
0
0
LINE
5
242
100
AcDbEntity
8
0
100
AcDbLine
10
559.42929330245261
20
-67.463251902164302
30
0
11
556.25057521239523
21
-67.463251902164302
31
0
0
ENDSEC
0
SECTION
2
OBJECTS
0
DICTIONARY
5
C
100
AcDbDictionary
3
ACAD_GROUP
350
D
3
ACAD_MLINESTYLE
350
17
0
DICTIONARY
5
D
100
AcDbDictionary
0
DICTIONARY
5
1A
330
C
100
AcDbDictionary
0
DICTIONARY
5
17
100
AcDbDictionary
0
ENDSEC
0
EOF
